<svg id="Layer_1" data-name="Layer 1" xmlns="http://www.w3.org/2000/svg" viewBox="0 0 32 32"><defs><style>.cls-1{fill:#d44445;}.cls-2,.cls-5{fill:#fff;}.cls-2{stroke:#ffcd73;}.cls-2,.cls-4{stroke-miterlimit:10;}.cls-3{fill:#54cfc5;}.cls-4{fill:#48575d;stroke:#fff;}</style></defs><title>favicon</title><circle class="cls-1" cx="16.5" cy="16.5" r="15"/><rect class="cls-2" x="8" y="9" width="17" height="14" rx="2.29" ry="2.29"/><rect class="cls-3" x="18.98" y="12.25" width="1.69" height="1.5"/><rect class="cls-3" x="16.65" y="12.25" width="1.69" height="1.5"/><rect class="cls-1" x="14.33" y="12.25" width="1.69" height="1.5"/><rect class="cls-3" x="12" y="12.25" width="1.69" height="1.5"/><rect class="cls-3" x="21.31" y="12.25" width="1.69" height="1.5"/><rect class="cls-1" x="18.98" y="14.58" width="1.69" height="1.5"/><rect class="cls-3" x="16.65" y="14.58" width="1.69" height="1.5"/><rect class="cls-1" x="14.33" y="14.58" width="1.69" height="1.5"/><rect class="cls-3" x="12" y="14.58" width="1.69" height="1.5"/><rect class="cls-3" x="21.31" y="14.58" width="1.69" height="1.5"/><rect class="cls-3" x="18.98" y="16.92" width="1.69" height="1.5"/><rect class="cls-1" x="16.65" y="16.92" width="1.69" height="1.5"/><rect class="cls-1" x="14.33" y="16.92" width="1.69" height="1.5"/><rect class="cls-3" x="12" y="16.92" width="1.69" height="1.5"/><rect class="cls-3" x="21.31" y="16.92" width="1.69" height="1.5"/><rect class="cls-1" x="18.98" y="19.25" width="1.69" height="1.5"/><rect class="cls-3" x="16.65" y="19.25" width="1.69" height="1.5"/><rect class="cls-1" x="14.33" y="19.25" width="1.69" height="1.5"/><rect class="cls-3" x="12" y="19.25" width="1.69" height="1.5"/><rect class="cls-3" x="21.31" y="19.25" width="1.69" height="1.5"/><circle class="cls-4" cx="11.5" cy="19.5" r="6"/><circle class="cls-5" cx="11.5" cy="15.5" r="0.5"/><circle class="cls-5" cx="11.5" cy="23.5" r="0.5"/><circle class="cls-5" cx="15.5" cy="19.5" r="0.5"/><circle class="cls-5" cx="7.5" cy="19.5" r="0.5"/><circle class="cls-5" cx="14.5" cy="16.5" r="0.5"/><circle class="cls-5" cx="8.5" cy="22.5" r="0.5"/><circle class="cls-5" cx="14.5" cy="22.5" r="0.5"/><circle class="cls-5" cx="8.5" cy="16.5" r="0.5"/></svg>