<svg id="Layer_1" data-name="Layer 1" xmlns="http://www.w3.org/2000/svg" viewBox="0 0 70 65"><defs><style>.cls-1{fill:#d44445;}.cls-2,.cls-5{fill:#fff;}.cls-2{stroke:#ffcd73;}.cls-2,.cls-4{stroke-miterlimit:10;}.cls-3{fill:#54cfc5;}.cls-4{fill:#48575d;stroke:#fff;}</style></defs><title>logo-sm</title><circle class="cls-1" cx="35.5" cy="32.5" r="30.5"/><rect class="cls-2" x="18.22" y="17.25" width="34.57" height="28.47" rx="2.29" ry="2.29"/><rect class="cls-3" x="40.54" y="23.86" width="3.44" height="3.05"/><rect class="cls-3" x="35.81" y="23.86" width="3.44" height="3.05"/><rect class="cls-1" x="31.08" y="23.86" width="3.44" height="3.05"/><rect class="cls-3" x="26.35" y="23.86" width="3.44" height="3.05"/><rect class="cls-3" x="45.28" y="23.86" width="3.44" height="3.05"/><rect class="cls-1" x="40.54" y="28.6" width="3.44" height="3.05"/><rect class="cls-3" x="35.81" y="28.6" width="3.44" height="3.05"/><rect class="cls-1" x="31.08" y="28.6" width="3.44" height="3.05"/><rect class="cls-3" x="26.35" y="28.6" width="3.44" height="3.05"/><rect class="cls-3" x="45.28" y="28.6" width="3.44" height="3.05"/><rect class="cls-3" x="40.54" y="33.35" width="3.44" height="3.05"/><rect class="cls-1" x="35.81" y="33.35" width="3.44" height="3.05"/><rect class="cls-1" x="31.08" y="33.35" width="3.44" height="3.05"/><rect class="cls-3" x="26.35" y="33.35" width="3.44" height="3.05"/><rect class="cls-3" x="45.28" y="33.35" width="3.44" height="3.05"/><rect class="cls-1" x="40.54" y="38.09" width="3.44" height="3.05"/><rect class="cls-3" x="35.81" y="38.09" width="3.44" height="3.05"/><rect class="cls-1" x="31.08" y="38.09" width="3.44" height="3.05"/><rect class="cls-3" x="26.35" y="38.09" width="3.44" height="3.05"/><rect class="cls-3" x="45.28" y="38.09" width="3.44" height="3.05"/><circle class="cls-4" cx="25.33" cy="38.6" r="12.2"/><circle class="cls-5" cx="25.33" cy="30.47" r="1.02"/><circle class="cls-5" cx="25.33" cy="46.73" r="1.02"/><circle class="cls-5" cx="33.47" cy="38.6" r="1.02"/><circle class="cls-5" cx="17.2" cy="38.6" r="1.02"/><circle class="cls-5" cx="31.43" cy="32.5" r="1.02"/><circle class="cls-5" cx="19.23" cy="44.7" r="1.02"/><circle class="cls-5" cx="31.43" cy="44.7" r="1.02"/><circle class="cls-5" cx="19.23" cy="32.5" r="1.02"/></svg>