<svg id="Layer_1" data-name="Layer 1" xmlns="http://www.w3.org/2000/svg" viewBox="0 0 150 65"><defs><style>.cls-1{fill:#d44445;}.cls-2,.cls-5{fill:#fff;}.cls-2{stroke:#ffcd73;}.cls-2,.cls-4{stroke-miterlimit:10;}.cls-3{fill:#54cfc5;}.cls-4{fill:#48575d;stroke:#fff;}.cls-6{font-size:18px;fill:#52545b;font-family:ChurchwardLorina-Regular3, Churchward Lorina ;}.cls-7{letter-spacing:-0.05em;}</style></defs><title>logo</title><circle class="cls-1" cx="29.5" cy="32.5" r="26.5"/><rect class="cls-2" x="14.48" y="19.25" width="30.03" height="24.73" rx="2.29" ry="2.29"/><rect class="cls-3" x="33.88" y="24.99" width="2.99" height="2.65"/><rect class="cls-3" x="29.77" y="24.99" width="2.99" height="2.65"/><rect class="cls-1" x="25.66" y="24.99" width="2.99" height="2.65"/><rect class="cls-3" x="21.55" y="24.99" width="2.99" height="2.65"/><rect class="cls-3" x="37.99" y="24.99" width="2.99" height="2.65"/><rect class="cls-1" x="33.88" y="29.11" width="2.99" height="2.65"/><rect class="cls-3" x="29.77" y="29.11" width="2.99" height="2.65"/><rect class="cls-1" x="25.66" y="29.11" width="2.99" height="2.65"/><rect class="cls-3" x="21.55" y="29.11" width="2.99" height="2.65"/><rect class="cls-3" x="37.99" y="29.11" width="2.99" height="2.65"/><rect class="cls-3" x="33.88" y="33.24" width="2.99" height="2.65"/><rect class="cls-1" x="29.77" y="33.24" width="2.99" height="2.65"/><rect class="cls-1" x="25.66" y="33.24" width="2.99" height="2.65"/><rect class="cls-3" x="21.55" y="33.24" width="2.99" height="2.65"/><rect class="cls-3" x="37.99" y="33.24" width="2.99" height="2.65"/><rect class="cls-1" x="33.88" y="37.36" width="2.99" height="2.65"/><rect class="cls-3" x="29.77" y="37.36" width="2.99" height="2.65"/><rect class="cls-1" x="25.66" y="37.36" width="2.99" height="2.65"/><rect class="cls-3" x="21.55" y="37.36" width="2.99" height="2.65"/><rect class="cls-3" x="37.99" y="37.36" width="2.99" height="2.65"/><circle class="cls-4" cx="20.67" cy="37.8" r="10.6"/><circle class="cls-5" cx="20.67" cy="30.73" r="0.88"/><circle class="cls-5" cx="20.67" cy="44.87" r="0.88"/><circle class="cls-5" cx="27.73" cy="37.8" r="0.88"/><circle class="cls-5" cx="13.6" cy="37.8" r="0.88"/><circle class="cls-5" cx="25.97" cy="32.5" r="0.88"/><circle class="cls-5" cx="15.37" cy="43.1" r="0.88"/><circle class="cls-5" cx="25.97" cy="43.1" r="0.88"/><circle class="cls-5" cx="15.37" cy="32.5" r="0.88"/><text class="cls-6" transform="translate(57.75 39.25)">Suivi P<tspan class="cls-7" x="61.16" y="0">T</tspan><tspan x="71.41" y="0">A</tspan></text></svg>